<?xml version="1.0" encoding="UTF-8"?>
<!DOCTYPE svg PUBLIC "-//W3C//DTD SVG 1.1//EN" "http://www.w3.org/Graphics/SVG/1.1/DTD/svg11.dtd">
<!-- Creator: CorelDRAW -->
<svg xmlns="http://www.w3.org/2000/svg" xml:space="preserve" width="1.70666in" height="1.70666in" version="1.1" style="shape-rendering:geometricPrecision; text-rendering:geometricPrecision; image-rendering:optimizeQuality; fill-rule:evenodd; clip-rule:evenodd"
viewBox="0 0 1707 1707"
 xmlns:xlink="http://www.w3.org/1999/xlink">
 <defs>
  <style type="text/css">
   <![CDATA[
    .fil0 {fill:#0E3454}
    .fil2 {fill:#F57C00}
    .fil1 {fill:#FCBE37}
   ]]>
  </style>
 </defs>
 <g id="Layer_x0020_1">
  <metadata id="CorelCorpID_0Corel-Layer"/>
  <path class="fil0" d="M148 505c-12,0 -22,-8 -23,-21 -2,-7 -5,-12 -9,-15 -12,-10 -37,-7 -43,-7 -14,3 -26,-7 -28,-19 -2,-14 7,-27 20,-28 4,-1 48,-7 79,15 1,2 3,3 4,3 1,-1 3,-3 4,-3 31,-22 75,-15 79,-15 14,3 22,15 20,28 -3,14 -16,22 -28,19 -7,-1 -31,-3 -43,7 -3,3 -7,6 -8,15 -2,12 -13,21 -24,21 0,0 0,0 0,0z"/>
  <path class="fil0" d="M172 715c-13,0 -23,-9 -24,-21 -5,-29 -50,-22 -51,-22 -14,2 -27,-7 -28,-20 -3,-14 7,-25 19,-28 5,-1 49,-6 79,16 2,1 3,3 5,3 1,-2 2,-3 4,-3 30,-22 75,-16 79,-16 14,3 22,16 19,28 -2,14 -15,22 -27,20 -7,-2 -31,-3 -43,7 -3,2 -7,5 -9,15 -1,11 -11,21 -23,21 0,0 0,0 0,0z"/>
  <path class="fil0" d="M1559 1380c-13,0 -23,-8 -24,-20 -1,-9 -6,-13 -8,-16 -13,-9 -36,-7 -43,-7 -14,3 -27,-7 -28,-19 -3,-14 7,-26 19,-28 4,-1 49,-7 79,15 2,2 3,2 5,3 1,-1 2,-1 4,-3 30,-22 75,-15 79,-15 14,3 22,15 19,28 -3,14 -15,22 -28,19 -7,-1 -30,-2 -43,7 -2,3 -7,6 -8,16 -1,12 -11,20 -23,20z"/>
  <path class="fil0" d="M406 1570c-12,0 -22,-8 -24,-20 -1,-9 -5,-13 -8,-16 -12,-8 -35,-7 -43,-5 -14,3 -26,-7 -28,-20 -2,-12 7,-26 20,-27 4,-2 48,-9 79,13 1,2 3,2 4,3 1,-1 3,-1 4,-3 31,-22 75,-15 79,-13 14,2 22,15 20,27 -3,14 -16,23 -28,20 -7,-2 -31,-3 -43,5 -3,3 -7,6 -8,16 -2,12 -11,20 -24,20z"/>
  <path class="fil0" d="M1330 195l0 0c-13,0 -23,-9 -24,-21 -1,-9 -5,-13 -8,-15 -13,-9 -35,-7 -43,-6 -14,3 -27,-7 -28,-19 -3,-13 7,-27 19,-28 6,-2 49,-9 80,14 1,1 2,1 4,2 1,-1 2,-1 4,-2 30,-23 75,-16 79,-14 14,3 22,15 19,28 -2,13 -15,22 -27,19 -7,-1 -31,-3 -43,6 -3,2 -7,5 -9,15 -1,11 -11,21 -23,21z"/>
  <path class="fil1" d="M1194 321c-12,0 -21,-8 -24,-18l-500 0c-3,10 -13,18 -24,18 -14,0 -25,-11 -25,-25 3,-162 136,-296 301,-296 164,0 297,134 297,297 0,13 -11,24 -25,24z"/>
  <path class="fil1" d="M1038 1706l-234 0c-78,0 -140,-62 -140,-140 0,-76 62,-139 140,-139 12,0 22,9 24,20l186 0c3,-11 13,-20 24,-20 78,0 141,63 141,139 0,76 -64,140 -141,140z"/>
  <path class="fil2" d="M1260 552c-12,0 -23,-9 -24,-21l-629 0c-2,12 -12,21 -25,21 -77,0 -140,-62 -140,-140 0,-77 63,-140 140,-140l678 0c78,0 140,63 140,140 0,78 -63,140 -140,140z"/>
  <path class="fil2" d="M1260 1475l-678 0c-77,0 -140,-63 -140,-140 0,-77 63,-139 140,-139 14,0 25,11 25,24l628 0c1,-13 12,-24 25,-24 78,0 140,62 140,139 0,77 -63,140 -140,140z"/>
  <path class="fil1" d="M1405 784c-14,0 -24,-10 -25,-23l-917 0c-1,13 -12,23 -25,23 -78,0 -140,-62 -140,-140 0,-76 62,-139 140,-139l967 0c76,0 138,63 138,139 0,76 -62,140 -138,140z"/>
  <path class="fil2" d="M1405 784c-14,0 -24,-10 -25,-23l-917 0c-1,13 -12,23 -25,23 -57,0 -105,-33 -127,-81 5,-1 11,-1 16,-1 396,0 791,-3 1187,-3 6,0 12,1 17,1 -21,49 -70,84 -126,84z"/>
  <path class="fil1" d="M1405 1244l-967 0c-78,0 -140,-62 -140,-140 0,-76 62,-138 140,-138 13,0 23,9 25,21l917 0c1,-12 12,-21 25,-21 76,0 138,62 138,138 0,78 -62,140 -138,140z"/>
  <path class="fil2" d="M311 1047c22,-48 70,-81 127,-81 13,0 23,9 25,21l917 0c1,-12 12,-21 25,-21 55,0 104,33 126,81 -5,0 -10,1 -15,1 -397,0 -793,0 -1189,0 -6,0 -11,-1 -16,-1z"/>
  <path class="fil1" d="M1516 1014c-409,0 -780,0 -1189,0 -76,0 -139,-62 -139,-140 0,-76 63,-139 139,-139 419,0 771,-2 1187,-2 76,0 139,62 139,138 1,79 -61,143 -137,143z"/>
  <path class="fil2" d="M922 1132c-143,0 -259,-116 -259,-259 0,-143 116,-260 259,-260 143,0 258,117 258,260 -1,144 -117,259 -258,259z"/>
  <path class="fil1" d="M922 1035c-89,0 -161,-72 -161,-161 0,-89 72,-159 161,-159 89,0 159,72 159,159 0,89 -72,161 -159,161z"/>
 </g>
</svg>
